<svg width="22" height="25" viewBox="0 0 22 25" fill="none" xmlns="http://www.w3.org/2000/svg">
<path d="M8.5 20.0134C3.5 21.5134 3.5 17.5134 1.5 17.0134M15.5 23.0134V19.1434C15.5375 18.6665 15.4731 18.1872 15.311 17.7372C15.1489 17.2871 14.8929 16.8768 14.56 16.5334C17.7 16.1834 21 14.9934 21 9.53337C20.9997 8.13719 20.4627 6.79456 19.5 5.78337C19.9559 4.56187 19.9236 3.21171 19.41 2.01337C19.41 2.01337 18.23 1.66337 15.5 3.49337C13.208 2.87219 10.792 2.87219 8.5 3.49337C5.77 1.66337 4.59 2.01337 4.59 2.01337C4.07638 3.21171 4.04414 4.56187 4.5 5.78337C3.53013 6.80206 2.99252 8.15683 3 9.56337C3 14.9834 6.3 16.1734 9.44 16.5634C9.111 16.9033 8.85726 17.3088 8.69531 17.7533C8.53335 18.1978 8.46681 18.6714 8.5 19.1434V23.0134" stroke="white" stroke-width="2" stroke-linecap="round" stroke-linejoin="round"/>
</svg>
