<svg width="282" height="91" viewBox="0 0 282 91" fill="none" xmlns="http://www.w3.org/2000/svg">
<path d="M32.6429 10.1429C32.6429 5.09534 36.7382 1 41.7857 1H48.2143C53.2618 1 57.3571 5.09534 57.3571 10.1429V80.8571C57.3571 85.9047 53.2618 90 48.2143 90H41.7857C36.7382 90 32.6429 85.9047 32.6429 80.8571V10.1429ZM0.5 48.7143C0.5 43.6668 4.59534 39.5714 9.64286 39.5714H16.0714C21.1189 39.5714 25.2143 43.6668 25.2143 48.7143V80.8571C25.2143 85.9047 21.1189 90 16.0714 90H9.64286C4.59534 90 0.5 85.9047 0.5 80.8571V48.7143ZM73.9286 13.8571H80.3571C85.4047 13.8571 89.5 17.9525 89.5 23V80.8571C89.5 85.9047 85.4047 90 80.3571 90H73.9286C68.8811 90 64.7857 85.9047 64.7857 80.8571V23C64.7857 17.9525 68.8811 13.8571 73.9286 13.8571Z" fill="#1B1B1D" stroke="#E38F25"/>
<path d="M128.643 10.1429C128.643 5.09534 132.738 1 137.786 1H144.214C149.262 1 153.357 5.09534 153.357 10.1429V80.8571C153.357 85.9047 149.262 90 144.214 90H137.786C132.738 90 128.643 85.9047 128.643 80.8571V10.1429ZM96.5 48.7143C96.5 43.6668 100.595 39.5714 105.643 39.5714H112.071C117.119 39.5714 121.214 43.6668 121.214 48.7143V80.8571C121.214 85.9047 117.119 90 112.071 90H105.643C100.595 90 96.5 85.9047 96.5 80.8571V48.7143ZM169.929 13.8571H176.357C181.405 13.8571 185.5 17.9525 185.5 23V80.8571C185.5 85.9047 181.405 90 176.357 90H169.929C164.881 90 160.786 85.9047 160.786 80.8571V23C160.786 17.9525 164.881 13.8571 169.929 13.8571Z" fill="#1B1B1D" stroke="#E38F25"/>
<path d="M224.643 10.1429C224.643 5.09534 228.738 1 233.786 1H240.214C245.262 1 249.357 5.09534 249.357 10.1429V80.8571C249.357 85.9047 245.262 90 240.214 90H233.786C228.738 90 224.643 85.9047 224.643 80.8571V10.1429ZM192.5 48.7143C192.5 43.6668 196.595 39.5714 201.643 39.5714H208.071C213.119 39.5714 217.214 43.6668 217.214 48.7143V80.8571C217.214 85.9047 213.119 90 208.071 90H201.643C196.595 90 192.5 85.9047 192.5 80.8571V48.7143ZM265.929 13.8571H272.357C277.405 13.8571 281.5 17.9525 281.5 23V80.8571C281.5 85.9047 277.405 90 272.357 90H265.929C260.881 90 256.786 85.9047 256.786 80.8571V23C256.786 17.9525 260.881 13.8571 265.929 13.8571Z" fill="#1B1B1D" stroke="#E38F25"/>
</svg>
