<svg width="23" height="22" viewBox="0 0 23 22" fill="none" xmlns="http://www.w3.org/2000/svg">
<path d="M15.5 7.98657C17.0913 7.98657 18.6174 8.61871 19.7426 9.74393C20.8679 10.8692 21.5 12.3953 21.5 13.9866V20.9866H17.5V13.9866C17.5 13.4561 17.2893 12.9474 16.9142 12.5724C16.5391 12.1973 16.0304 11.9866 15.5 11.9866C14.9696 11.9866 14.4609 12.1973 14.0858 12.5724C13.7107 12.9474 13.5 13.4561 13.5 13.9866V20.9866H9.5V13.9866C9.5 12.3953 10.1321 10.8692 11.2574 9.74393C12.3826 8.61871 13.9087 7.98657 15.5 7.98657Z" stroke="white" stroke-width="2" stroke-linecap="round" stroke-linejoin="round"/>
<path d="M5.5 8.98657H1.5V20.9866H5.5V8.98657Z" stroke="white" stroke-width="2" stroke-linecap="round" stroke-linejoin="round"/>
<path d="M3.5 5.98657C4.60457 5.98657 5.5 5.09114 5.5 3.98657C5.5 2.882 4.60457 1.98657 3.5 1.98657C2.39543 1.98657 1.5 2.882 1.5 3.98657C1.5 5.09114 2.39543 5.98657 3.5 5.98657Z" stroke="white" stroke-width="2" stroke-linecap="round" stroke-linejoin="round"/>
</svg>
