<svg width="25" height="21" viewBox="0 0 25 21" fill="none" xmlns="http://www.w3.org/2000/svg">
<path d="M23.5 1.99663C22.5424 2.67211 21.4821 3.18874 20.36 3.52663C19.7577 2.83414 18.9573 2.34332 18.067 2.12055C17.1767 1.89779 16.2395 1.95382 15.3821 2.28108C14.5247 2.60834 13.7884 3.19103 13.273 3.95034C12.7575 4.70966 12.4877 5.60896 12.5 6.52663V7.52663C10.7426 7.5722 9.00127 7.18244 7.43101 6.39207C5.86074 5.60171 4.51032 4.43526 3.5 2.99663C3.5 2.99663 -0.5 11.9966 8.5 15.9966C6.44053 17.3946 3.98716 18.0956 1.5 17.9966C10.5 22.9966 21.5 17.9966 21.5 6.49663C21.4991 6.21808 21.4723 5.94022 21.42 5.66663C22.4406 4.66012 23.1608 3.38934 23.5 1.99663Z" stroke="white" stroke-width="2" stroke-linecap="round" stroke-linejoin="round"/>
</svg>
